# xmcd
#
# Track frame offsets:
#	150
#	13897
#	25560
#	42500
#	56785
#	68642
#	83700
#	96920
#	110885
#	122817
#
# Disc length: 1785 seconds
#
# Revision: 0
# Processed by: cddbd v1.5.2PL0 Copyright (c) Steve Scherf et al.
# Submitted via: dBpowerAMP V4.0
#
DISCID=8606f70a
DTITLE=Conway Twitty - Pure Country
DYEAR=2000
DGENRE=Country
TTITLE0=Baby's gone
TTITLE1=To see an angel cry
TTITLE2=Don't cry Joni
TTITLE3=You've never been this far before
TTITLE4=I can't see me without you
TTITLE5=(Lost her love) On our last date
TTITLE6=Danny boy
TTITLE7=Fifteen years ago
TTITLE8=Linda on my mind
TTITLE9=It's only make believe
EXTD=
EXTT0=
EXTT1=
EXTT2=
EXTT3=
EXTT4=
EXTT5=
EXTT6=
EXTT7=
EXTT8=
EXTT9=
PLAYORDER=
